<?xml version="1.0" encoding="iso-8859-1"?>
<!-- Generator: Adobe Illustrator 19.0.0, SVG Export Plug-In . SVG Version: 6.00 Build 0)  -->
<svg version="1.1" id="Capa_1" xmlns="http://www.w3.org/2000/svg" xmlns:xlink="http://www.w3.org/1999/xlink" x="0px" y="0px"
	 viewBox="0 0 512 512" style="enable-background:new 0 0 512 512;" xml:space="preserve">
<path style="fill:#4AE4BC;" d="M252.59,512c-2.048,0-4.095-0.781-5.657-2.343c-26.434-26.434-37.929-53.481-35.141-82.684
	c2.384-24.961,14.898-47.395,25.938-67.187c17.227-30.881,26.147-49.178,9.202-66.123c-3.124-3.124-3.124-8.189,0-11.313
	c3.125-3.124,8.189-3.124,11.314,0c26.319,26.319,9.613,56.268-6.544,85.231c-21.867,39.203-44.48,79.74,6.544,130.763
	C263.172,503.269,259.585,512,252.59,512z"/>
<path style="fill:#DA6C84;" d="M285.667,282.35l-23.999-23.999c-3.125-3.124-8.189-3.124-11.314,0l-23.999,23.999
	c-2.288,2.288-2.972,5.729-1.733,8.718c1.239,2.989,4.155,4.938,7.391,4.938h47.999c3.235,0,6.152-1.949,7.391-4.938
	C288.641,288.078,287.955,284.638,285.667,282.35z"/>
<path style="fill:#FF97A4;" d="M413.56,68.631c-5.188-24.006-17.946-43.976-35.925-56.228c-17.1-11.654-37.294-15.185-58.402-10.212
	c-21.184,4.992-42.267,18.206-62.759,39.314c-20.492-21.108-41.575-34.321-62.758-39.314c-21.107-4.974-41.303-1.443-58.402,10.211
	c-17.979,12.253-30.736,32.222-35.925,56.228c-5.333,24.672-1.852,51.096,9.802,74.402c23.092,46.184,61.195,77.041,89.095,94.795
	c30.127,19.171,54.633,27.445,55.66,27.788c1.633,0.545,3.428,0.545,5.061,0c1.028-0.343,25.533-8.617,55.66-27.788
	c27.898-17.754,66.002-48.612,89.095-94.795C415.412,119.727,418.893,93.304,413.56,68.631z"/>
<path style="fill:#FF7D8D;" d="M237.348,227.81c-27.898-17.754-66.002-48.612-89.095-94.795
	c-11.653-23.306-15.135-49.73-9.802-74.402c5.188-24.006,17.947-43.976,35.925-56.228c1.207-0.822,2.433-1.594,3.669-2.335
	c-15.371-0.55-29.921,3.621-42.734,12.354c-17.979,12.253-30.736,32.222-35.925,56.228c-5.333,24.672-1.852,51.096,9.802,74.402
	c23.092,46.184,61.195,77.041,89.095,94.795c30.127,19.171,54.633,27.445,55.66,27.788c1.633,0.545,3.428,0.545,5.061,0
	c0.687-0.229,11.847-4,28.15-12.183C278.01,249.852,259.155,241.688,237.348,227.81z"/>
<path style="fill:#FDDA6B;" d="M424.007,512c-2.048,0-4.095-0.781-5.657-2.343c-33.229-33.23-19.488-60.158-8.448-81.796
	c8.426-16.513,15.703-30.773,6.95-48.28c-1.976-3.952-0.374-8.757,3.577-10.733c3.952-1.976,8.759-0.375,10.733,3.578
	c12.368,24.735,2.073,44.909-7.009,62.707c-10.893,21.345-19.495,38.205,5.511,63.21C434.588,503.269,431.002,512,424.007,512z"/>
<path style="fill:#FE5578;" d="M489.756,239.312c-7.619-5.193-34.014-18.714-67.237,13.473
	c-33.225-32.187-59.619-18.665-67.237-13.473c-22.062,15.037-28.77,47.961-15.272,74.955c24.387,48.775,77.722,67.02,79.979,67.773
	c0.821,0.274,1.676,0.411,2.53,0.411c0.854,0,1.709-0.137,2.53-0.411c2.258-0.753,55.592-18.998,79.979-67.773
	C518.525,287.273,511.816,254.348,489.756,239.312z"/>
<path style="fill:#FE2A56;" d="M362.301,306.392c-13.101-26.2-7.546-57.861,12.386-74.111c-9.327,0.999-16.118,4.79-19.406,7.033
	c-22.062,15.037-28.77,47.961-15.272,74.955c24.387,48.775,77.722,67.02,79.979,67.773c1.633,0.545,3.428,0.545,5.061,0
	c0.762-0.254,7.355-2.508,16.687-7.254C430.936,370.727,384.682,351.155,362.301,306.392z"/>
<path style="fill:#FDDA6B;" d="M90.971,512c-2.048,0-4.095-0.781-5.657-2.343c-33.229-33.23-19.488-60.158-8.448-81.796
	c8.426-16.513,15.703-30.773,6.95-48.28c-1.976-3.952-0.374-8.757,3.577-10.733c3.951-1.976,8.758-0.375,10.733,3.578
	c12.368,24.735,2.073,44.909-7.009,62.707c-10.893,21.345-19.495,38.205,5.511,63.21C101.553,503.269,97.966,512,90.971,512z"/>
<path style="fill:#FE5578;" d="M156.72,239.312c-7.619-5.193-34.014-18.714-67.237,13.473
	c-33.225-32.187-59.619-18.665-67.237-13.473c-22.062,15.038-28.77,47.962-15.273,74.956c24.387,48.775,77.722,67.02,79.979,67.773
	c0.821,0.274,1.676,0.411,2.53,0.411s1.709-0.137,2.53-0.411c2.258-0.753,55.592-18.998,79.979-67.773
	C185.489,287.273,178.78,254.348,156.72,239.312z"/>
<path style="fill:#FE2A56;" d="M29.265,306.392c-13.101-26.2-7.546-57.861,12.386-74.111c-9.327,0.999-16.118,4.79-19.406,7.033
	c-22.061,15.036-28.769,47.96-15.272,74.954c24.387,48.775,77.722,67.02,79.979,67.773c1.633,0.545,3.428,0.545,5.061,0
	c0.762-0.254,7.355-2.508,16.687-7.254C97.9,370.727,51.646,351.155,29.265,306.392z"/>
<g>
</g>
<g>
</g>
<g>
</g>
<g>
</g>
<g>
</g>
<g>
</g>
<g>
</g>
<g>
</g>
<g>
</g>
<g>
</g>
<g>
</g>
<g>
</g>
<g>
</g>
<g>
</g>
<g>
</g>
</svg>
